<mxfile host="app.diagrams.net" modified="2023-11-25T11:14:59.993Z" agent="Mozilla/5.0 (Macintosh; Intel Mac OS X 10_15_7) AppleWebKit/537.36 (KHTML, like Gecko) Chrome/119.0.0.0 Safari/537.36" etag="90dyT9vQaEPPP1lrCyF1" version="22.1.4" type="device">
  <diagram name="Page-1" id="9f46799a-70d6-7492-0946-bef42562c5a5">
    <mxGraphModel dx="569" dy="277" grid="1" gridSize="10" guides="1" tooltips="1" connect="1" arrows="1" fold="1" page="1" pageScale="1" pageWidth="1100" pageHeight="850" background="none" math="0" shadow="0">
      <root>
        <mxCell id="0" />
        <mxCell id="1" parent="0" />
        <mxCell id="M0NeBHkKiZzbjTiefMC1-1" value="Logo" style="swimlane;fontStyle=0;childLayout=stackLayout;horizontal=1;startSize=26;fillColor=none;horizontalStack=0;resizeParent=1;resizeParentMax=0;resizeLast=0;collapsible=1;marginBottom=0;html=1;" vertex="1" parent="1">
          <mxGeometry x="430" y="280" width="170" height="20" as="geometry" />
        </mxCell>
        <mxCell id="M0NeBHkKiZzbjTiefMC1-5" value="&lt;font style=&quot;font-size: 18px;&quot;&gt;Date&lt;/font&gt;" style="swimlane;fontStyle=0;childLayout=stackLayout;horizontal=1;startSize=26;fillColor=none;horizontalStack=0;resizeParent=1;resizeParentMax=0;resizeLast=0;collapsible=1;marginBottom=0;html=1;" vertex="1" parent="1">
          <mxGeometry x="430" y="300" width="170" height="20" as="geometry" />
        </mxCell>
        <mxCell id="M0NeBHkKiZzbjTiefMC1-6" value="" style="shape=flexArrow;endArrow=classic;html=1;rounded=0;endWidth=6;endSize=8.67;" edge="1" parent="M0NeBHkKiZzbjTiefMC1-5">
          <mxGeometry width="50" height="50" relative="1" as="geometry">
            <mxPoint x="140" y="9.75" as="sourcePoint" />
            <mxPoint x="170" y="10.25" as="targetPoint" />
          </mxGeometry>
        </mxCell>
        <mxCell id="M0NeBHkKiZzbjTiefMC1-9" value="" style="shape=flexArrow;endArrow=classic;html=1;rounded=0;endWidth=6;endSize=8.67;" edge="1" parent="M0NeBHkKiZzbjTiefMC1-5">
          <mxGeometry width="50" height="50" relative="1" as="geometry">
            <mxPoint x="30" y="9.5" as="sourcePoint" />
            <mxPoint y="10.5" as="targetPoint" />
          </mxGeometry>
        </mxCell>
        <mxCell id="M0NeBHkKiZzbjTiefMC1-11" value="" style="swimlane;fontStyle=0;childLayout=stackLayout;horizontal=1;startSize=100;fillColor=none;horizontalStack=0;resizeParent=1;resizeParentMax=0;resizeLast=0;collapsible=1;marginBottom=0;html=1;" vertex="1" parent="1">
          <mxGeometry x="430" y="320" width="170" height="100" as="geometry" />
        </mxCell>
        <mxCell id="M0NeBHkKiZzbjTiefMC1-12" value="heading&amp;nbsp;" style="swimlane;fontStyle=0;childLayout=stackLayout;horizontal=1;startSize=26;fillColor=none;horizontalStack=0;resizeParent=1;resizeParentMax=0;resizeLast=0;collapsible=1;marginBottom=0;html=1;" vertex="1" parent="1">
          <mxGeometry x="190" y="280" width="170" height="20" as="geometry" />
        </mxCell>
        <mxCell id="M0NeBHkKiZzbjTiefMC1-16" value="all the teams." style="swimlane;fontStyle=0;childLayout=stackLayout;horizontal=1;startSize=100;fillColor=none;horizontalStack=0;resizeParent=1;resizeParentMax=0;resizeLast=0;collapsible=1;marginBottom=0;html=1;" vertex="1" parent="1">
          <mxGeometry x="190" y="300" width="170" height="100" as="geometry" />
        </mxCell>
      </root>
    </mxGraphModel>
  </diagram>
</mxfile>
